# xmcd
#
# Track frame offsets:
#	150
#	24206
#	47623
#	71580
#	94245
#	123977
#	149975
#	169655
#	188246
#	219228
#	253073
#
# Disc length: 3674 seconds
#
# Revision: 0
# Processed by: cddbd v1.5.2PL0 Copyright (c) Steve Scherf et al.
# Submitted via: EasyCDDAExtractor 10.2.0.1
#
DISCID=9e0e580b
DTITLE=Quintessence - Talk Less Listen More
DYEAR=2004
DGENRE=R&B
TTITLE0=Sticks and Stones
TTITLE1=1st Impressions
TTITLE2=Never
TTITLE3=Raindrops
TTITLE4=The Right
TTITLE5=Skywalker
TTITLE6=(Cyclic Skit)
TTITLE7=Sparkle
TTITLE8=Ballad in 6/8
TTITLE9=White Light
TTITLE10=Funky Ass Guitar (Bonus Track)
EXTD=
EXTT0=
EXTT1=
EXTT2=
EXTT3=
EXTT4=
EXTT5=
EXTT6=
EXTT7=
EXTT8=
EXTT9=
EXTT10=
PLAYORDER=
